HIERARCHY
ROOT Hips
{
    OFFSET 0.000000 0.000000 0.000000
    CHANNELS 6 Xposition Yposition Zposition Zrotation Xrotation Yrotation
    JOINT Spine
    {
        OFFSET -0.000000 7.236184 0.000000
        CHANNELS 3 Zrotation Xrotation Yrotation
        JOINT Spine1
        {
            OFFSET -0.000000 20.420147 0.000000
            CHANNELS 3 Zrotation Xrotation Yrotation
            JOINT Neck
            {
                OFFSET -0.000000 20.336288 1.848754
                CHANNELS 3 Zrotation Xrotation Yrotation
                JOINT Head
                {
                    OFFSET -0.000000 12.354461 -1.764923
                    CHANNELS 3 Zrotation Xrotation Yrotation
                    End Site
                    {
                        OFFSET -0.000000 22.061537 0.000000
                    }
                }
            }
            JOINT LeftShoulder
            {
                OFFSET 3.573296 18.396038 -0.314103
                CHANNELS 3 Zrotation Xrotation Yrotation
                JOINT LeftArm
                {
                    OFFSET 10.880760 0.000000 0.000000
                    CHANNELS 3 Zrotation Xrotation Yrotation
                    JOINT LeftForeArm
                    {
                        OFFSET 27.185530 0.000000 0.000000
                        CHANNELS 3 Zrotation Xrotation Yrotation
                        JOINT LeftHand
                        {
                            OFFSET 27.825975 0.000000 0.000000
                            CHANNELS 3 Zrotation Xrotation Yrotation
                            End Site
                            {
                                OFFSET 13.236923 0.000000 0.000000
                            }
                        }
                    }
                }
            }
            JOINT RightShoulder
            {
                OFFSET -3.474926 18.396038 -0.314103
                CHANNELS 3 Zrotation Xrotation Yrotation
                JOINT RightArm
                {
                    OFFSET -10.880760 0.000000 0.000000
                    CHANNELS 3 Zrotation Xrotation Yrotation
                    JOINT RightForeArm
                    {
                        OFFSET -27.185530 0.000000 0.000000
                        CHANNELS 3 Zrotation Xrotation Yrotation
                        JOINT RightHand
                        {
                            OFFSET -27.825975 0.000000 0.000000
                            CHANNELS 3 Zrotation Xrotation Yrotation
                            End Site
                            {
                                OFFSET -13.236923 0.000000 0.000000
                            }
                        }
                    }
                }
            }
        }
    }
    JOINT LeftUpLeg
    {
        OFFSET 8.824615 0.000000 0.000000
        CHANNELS 3 Zrotation Xrotation Yrotation
        JOINT LeftLeg
        {
            OFFSET -0.000000 -35.111282 0.000000
            CHANNELS 3 Zrotation Xrotation Yrotation
            JOINT LeftFoot
            {
                OFFSET -0.000000 -42.324711 0.000000
                CHANNELS 3 Zrotation Xrotation Yrotation
                JOINT LeftToeBase
                {
                    OFFSET -0.000000 -5.735999 13.236923
                    CHANNELS 3 Zrotation Xrotation Yrotation
                    End Site
                    {
                        OFFSET -0.000000 0.000000 3.529846
                    }
                }
            }
        }
    }
    JOINT RightUpLeg
    {
        OFFSET -8.824615 0.000000 0.000000
        CHANNELS 3 Zrotation Xrotation Yrotation
        JOINT RightLeg
        {
            OFFSET -0.000000 -35.111282 0.000000
            CHANNELS 3 Zrotation Xrotation Yrotation
            JOINT RightFoot
            {
                OFFSET -0.000000 -42.324711 0.000000
                CHANNELS 3 Zrotation Xrotation Yrotation
                JOINT RightToeBase
                {
                    OFFSET -0.000000 -5.735999 13.236923
                    CHANNELS 3 Zrotation Xrotation Yrotation
                    End Site
                    {
                        OFFSET -0.000000 0.000000 3.529846
                    }
                }
            }
        }
    }
}
MOTION
Frames:    7
Frame Time:    0.008333
-7.045691    82.120323    101.351974    0.441492    -2.853695    -175.025772    -2.857574    -6.904749    0.658348    -2.447260    1.896028    0.871290    5.601518    14.336741    -2.755331    8.850078    -23.546179    0.056989    -3.334093    17.980839    -0.828054    -51.063023    32.347366    -33.538017    33.970291    -4.140187    -31.191927    59.790260    3.383442    -3.935992    8.563148    16.838108    -9.150211    45.966072    38.738007    31.811901    -30.729719    -4.466730    40.025455    -58.950977    5.028313    3.538555    1.917337    -15.162354    -3.844975    2.142291    29.164091    4.029269    -6.498152    -13.808500    -12.696547    -0.481806    -1.341814    0.535371    -4.324776    -10.241558    1.229557    1.642365    23.354374    4.757670    -0.808936    -11.214868    -14.504885    -1.406292    -2.299111    1.525902    
-6.918474    82.069107    101.370323    0.376623    -2.815876    -175.075836    -2.727160    -6.827730    0.656197    -2.430063    2.125080    0.864022    5.508118    14.041127    -2.591341    7.983010    -23.676153    -0.074223    -3.447873    18.094683    -0.972856    -50.944885    33.161770    -34.036907    33.948742    -4.054069    -31.089052    60.068096    3.158582    -4.381691    8.682128    16.997063    -9.010475    45.109310    39.718807    32.841248    -30.874290    -4.425551    40.137516    -58.862141    4.989511    3.850975    1.934438    -15.254818    -3.817943    2.163640    29.377941    4.099936    -6.559021    -13.850902    -12.753766    -0.499519    -1.395559    0.555109    -4.281929    -10.419238    1.263337    1.632389    23.716412    4.827549    -0.857954    -11.340019    -14.590448    -1.427974    -2.258363    1.549337    
-6.798497    82.022652    101.385376    0.309411    -2.782464    -175.122879    -2.602834    -6.759170    0.651743    -2.417301    2.343422    0.854960    5.413035    13.766329    -2.431650    7.139263    -23.799278    -0.202341    -3.544751    18.180939    -1.101152    -50.796055    33.836540    -34.454037    33.915054    -3.933426    -31.015806    60.320007    2.970443    -4.831452    8.777502    17.139471    -8.891009    44.288063    40.537243    33.759869    -31.017653    -4.335308    40.289906    -58.767860    4.988053    4.208364    1.946337    -15.331384    -3.795336    2.179954    29.560642    4.166383    -6.616158    -13.884735    -12.804236    -0.517021    -1.448984    0.574615    -4.247797    -10.578097    1.283939    1.618371    24.041830    4.899302    -0.904993    -11.452112    -14.665777    -1.448506    -2.219269    1.571527    
-6.674377    81.976929    101.398804    0.233712    -2.752075    -175.170898    -2.472880    -6.693087    0.643534    -2.406850    2.568578    0.842153    5.306851    13.488594    -2.260599    6.239115    -23.926844    -0.338773    -3.634895    18.252247    -1.220628    -50.619663    34.428471    -34.824436    33.867764    -3.769059    -30.967091    60.568275    2.803359    -5.322388    8.857938    17.278612    -8.780836    43.447632    41.266220    34.640270    -31.171133    -4.187281    40.498882    -58.662243    5.025496    4.642018    1.954078    -15.401178    -3.774151    2.193410    29.729038    4.234515    -6.675188    -13.913305    -12.853917    -0.535826    -1.505503    0.595577    -4.219209    -10.734416    1.294067    1.599365    24.360294    4.978621    -0.956508    -11.561195    -14.738289    -1.469751    -2.178159    1.594483    
-6.549123    81.933800    101.410126    0.150869    -2.727648    -175.218124    -2.340062    -6.632244    0.630390    -2.398391    2.791973    0.824484    5.190142    13.217362    -2.081006    5.300628    -24.054880    -0.480108    -3.715322    18.307760    -1.322342    -50.434124    34.901260    -35.122627    33.808075    -3.563830    -30.950066    60.803860    2.666023    -5.839911    8.918141    17.408760    -8.684840    42.625751    41.882481    35.435566    -31.339907    -3.989865    40.764729    -58.548477    5.104120    5.137816    1.957120    -15.462837    -3.754619    2.203320    29.875660    4.301903    -6.734432    -13.935199    -12.901505    -0.555319    -1.562259    0.617308    -4.197762    -10.884054    1.293229    1.575880    24.659798    5.062777    -1.009627    -11.663500    -14.805104    -1.490950    -2.136087    1.617382    
-6.429998    81.896240    101.418709    0.065707    -2.712181    -175.261688    -2.211719    -6.580404    0.612251    -2.391680    2.997200    0.802056    5.068188    12.970678    -1.902604    4.377736    -24.175037    -0.617433    -3.782269    18.346556    -1.396530    -50.266224    35.218853    -35.320469    33.741184    -3.334661    -30.967701    61.011490    2.566538    -6.347743    8.953699    17.521206    -8.609200    41.894051    42.345913    36.078621    -31.513508    -3.759028    41.075993    -58.437168    5.219118    5.661871    1.955179    -15.513733    -3.736954    2.209561    29.990591    4.364190    -6.790745    -13.948760    -12.944916    -0.574181    -1.614962    0.638338    -4.184994    -11.018784    1.282973    1.550096    24.920879    5.145279    -1.061896    -11.752460    -14.862392    -1.510784    -2.095623    1.638804    
-6.307821    81.861687    101.425293    -0.027656    -2.705433    -175.304779    -2.077335    -6.533645    0.587249    -2.385463    3.197461    0.772472    4.931243    12.731245    -1.711299    3.399462    -24.295630    -0.760998    -3.841688    18.373461    -1.446142    -50.117302    35.403831    -35.426506    33.663982    -3.071002    -31.021160    61.206841    2.495836    -6.876682    8.967176    17.623617    -8.547703    41.212780    42.696564    36.604992    -31.706680    -3.488345    41.456036    -58.322205    5.376067    6.241791    1.948820    -15.558905    -3.719081    2.212702    30.082741    4.425454    -6.848132    -13.955389    -12.987377    -0.593680    -1.666638    0.660079    -4.179344    -11.149327    1.264783    1.520967    25.162397    5.230517    -1.116029    -11.834850    -14.914620    -1.530429    -2.054925    1.660017    
